<?xml version="1.0"?>
<svg xmlns="http://www.w3.org/2000/svg" xmlns:xlink="http://www.w3.org/1999/xlink" version="1.1" viewBox="0 0 192 192" width="208px" height="208px"><g fill="none" fill-rule="nonzero" stroke="none" stroke-width="1" stroke-linecap="butt" stroke-linejoin="miter" stroke-miterlimit="10" stroke-dasharray="" stroke-dashoffset="0" font-family="none" font-weight="none" font-size="none" text-anchor="none" style="mix-blend-mode: normal"><path d="M0,192v-192h192v192z" fill="none"/><g fill="#ffffff"><g id="surface1"><path d="M140.30769,0c-16.32692,0 -29.53846,13.24039 -29.53846,29.53846c0,19.67308 25.84615,46.5577 25.84615,73.61538h7.38462c0,-27.05769 25.84615,-53.16346 25.84615,-73.61538c0,-16.29808 -13.21153,-29.53846 -29.53846,-29.53846zM140.30769,14.30769c8.42308,0 15.23077,6.83654 15.23077,15.23077c0,8.42308 -6.80769,15.23077 -15.23077,15.23077c-8.39423,0 -15.23077,-6.80769 -15.23077,-15.23077c0,-8.39423 6.83654,-15.23077 15.23077,-15.23077zM96,14.76923c-48.86538,0 -88.61538,39.75 -88.61538,88.61538c0,48.86539 39.75,88.61538 88.61538,88.61538c48.86539,0 88.61538,-39.75 88.61538,-88.61538c0,-14.85577 -3.66346,-28.78846 -10.15385,-41.07692c-0.98077,1.93269 -1.96154,3.80769 -3,5.76923c-1.93269,3.75 -3.98077,7.52884 -5.76923,11.30769c1.84615,5.27885 3.11538,10.875 3.69231,16.61538h-9.69231c-0.51923,2.48077 -0.92308,4.78847 -0.92308,7.15385v7.61538h10.61538c-1.06731,10.67308 -4.29808,20.68269 -9.46154,29.53846h-21.69231c1.61538,-6.92308 2.56731,-14.59615 3.23077,-22.38462h-14.53846c-0.72115,8.07692 -2.16346,15.66346 -3.92308,22.38462h-54c-2.27885,-8.68269 -3.89423,-18.63461 -4.38462,-29.53846h57.23077v-7.61538c0,-2.33654 -0.40384,-4.67307 -0.92308,-7.15385h-56.30769c0.49038,-10.90384 2.10577,-20.85577 4.38462,-29.53846h39.46154c-2.56731,-5.01923 -5.07692,-9.92308 -7.15385,-14.76923h-27.23077c6.11538,-13.93269 14.16346,-22.15385 21.92308,-22.15385c0,-5.13461 0.92308,-9.95192 2.53846,-14.53846c-0.83654,-0.02884 -1.67307,-0.23077 -2.53846,-0.23077zM65.53846,36.23077c-2.76923,4.58654 -5.25,9.72115 -7.38462,15.46154h-14.76923c6.34615,-6.46154 13.81731,-11.65385 22.15385,-15.46154zM32.07692,66.46154h21.69231c-2.13461,9.08654 -3.49038,19.00962 -3.92308,29.53846h-27.23077c1.06731,-10.67307 4.29808,-20.68269 9.46154,-29.53846zM22.61538,110.76923h27.23077c0.43269,10.52884 1.78847,20.45192 3.92308,29.53846h-21.69231c-5.13461,-8.85577 -8.39423,-18.86538 -9.46154,-29.53846zM43.38462,155.07692h14.76923c2.13462,5.74039 4.61538,10.875 7.38462,15.46154c-8.33654,-3.80769 -15.80769,-9 -22.15385,-15.46154zM74.07692,155.07692h43.84615c-6.11538,13.93269 -14.16346,22.15385 -21.92308,22.15385c-7.75961,0 -15.83654,-8.22115 -21.92308,-22.15385zM133.84615,155.07692h14.76923c-6.34615,6.46154 -13.81731,11.65385 -22.15385,15.46154c2.76923,-4.58654 5.25,-9.72115 7.38462,-15.46154z"/></g></g></g></svg>
